<svg width="120" height="120" viewBox="0 0 120 120" fill="none" xmlns="http://www.w3.org/2000/svg">
<mask id="mask0_157_906" style="mask-type:alpha" maskUnits="userSpaceOnUse" x="0" y="0" width="120" height="120">
<rect width="120" height="120" fill="#D9D9D9"/>
</mask>
<g mask="url(#mask0_157_906)">
<path d="M82.5 96.5385C86.3846 96.5385 89.6955 95.1859 92.4326 92.4808C95.1699 89.7757 96.5385 86.4488 96.5385 82.5C96.5385 78.6154 95.1699 75.3045 92.4326 72.5674C89.6955 69.8301 86.3846 68.4615 82.5 68.4615C78.5513 68.4615 75.2243 69.8301 72.5192 72.5674C69.8141 75.3045 68.4615 78.6154 68.4615 82.5C68.4615 86.4488 69.8141 89.7757 72.5192 92.4808C75.2243 95.1859 78.5513 96.5385 82.5 96.5385ZM108 111.538L94.0192 97.5866C92.3974 98.8622 90.6138 99.8397 88.6683 100.519C86.7227 101.199 84.6667 101.538 82.5 101.538C77.2115 101.538 72.7163 99.6875 69.0144 95.9856C65.3125 92.2837 63.4615 87.7885 63.4615 82.5C63.4615 77.2115 65.3125 72.7163 69.0144 69.0144C72.7163 65.3125 77.2115 63.4615 82.5 63.4615C87.7885 63.4615 92.2837 65.3125 95.9856 69.0144C99.6875 72.7163 101.538 77.2115 101.538 82.5C101.538 84.6859 101.178 86.7677 100.457 88.7453C99.7356 90.7228 98.7372 92.5224 97.4616 94.1442L111.442 108L108 111.538ZM28.0769 105C25.7756 105 23.8542 104.229 22.3125 102.688C20.7708 101.146 20 99.2244 20 96.9231V23.0769C20 20.7756 20.7708 18.8542 22.3125 17.3125C23.8542 15.7708 25.7756 15 28.0769 15H67.5L90 37.5V52.5961C88.7692 52.2756 87.5289 52.0192 86.2789 51.8269C85.0289 51.6346 83.7692 51.5385 82.5 51.5385C77.7052 51.5385 73.2709 52.5257 69.1971 54.5C65.1234 56.4743 61.6603 59.173 58.8078 62.5961L37.5 62.5V67.5H55.4808C54.1731 69.7885 53.1875 72.1988 52.524 74.7308C51.8606 77.2628 51.5417 79.8526 51.5672 82.5H37.5V87.5H51.9326C52.4647 90.8974 53.5545 94.0849 55.2019 97.0625C56.8494 100.04 58.9391 102.686 61.4711 105H28.0769ZM65 40H85L65 20V40Z" fill="#BF1E2E"/>
</g>
</svg>
