<svg width="120" height="120" viewBox="0 0 120 120" fill="none" xmlns="http://www.w3.org/2000/svg">
<mask id="mask0_153_857" style="mask-type:alpha" maskUnits="userSpaceOnUse" x="0" y="0" width="120" height="120">
<rect width="120" height="120" fill="#D9D9D9"/>
</mask>
<g mask="url(#mask0_153_857)">
<path d="M12.5 27.5V7.5H32.5V12.5H17.5V27.5H12.5ZM102.5 27.5V12.5H87.5V7.5H107.5V27.5H102.5ZM12.5 112.5V92.5H17.5V107.5H32.5V112.5H12.5ZM87.5 112.5V107.5H102.5V92.5H107.5V112.5H87.5ZM35.5769 97.5C33.2756 97.5 31.3542 96.7292 29.8125 95.1875C28.2708 93.6458 27.5 91.7244 27.5 89.4231V30.5769C27.5 28.2756 28.2708 26.3542 29.8125 24.8125C31.3542 23.2708 33.2756 22.5 35.5769 22.5H84.4231C86.7244 22.5 88.6458 23.2708 90.1875 24.8125C91.7292 26.3542 92.5 28.2756 92.5 30.5769V89.4231C92.5 91.7244 91.7292 93.6458 90.1875 95.1875C88.6458 96.7292 86.7244 97.5 84.4231 97.5H35.5769ZM47.5 47.5H72.5V42.5H47.5V47.5ZM47.5 62.5H72.5V57.5H47.5V62.5ZM47.5 77.5H72.5V72.5H47.5V77.5Z" fill="#BF1E2E"/>
</g>
</svg>
