<svg width="22" height="19" viewBox="0 0 22 19" fill="none" xmlns="http://www.w3.org/2000/svg">
<path d="M20.2399 17.5094V1.87254C20.2399 1.7804 20.2103 1.70471 20.1511 1.64547C20.0918 1.58623 20.0161 1.55661 19.924 1.55661H2.07585C1.98371 1.55661 1.90802 1.58623 1.84878 1.64547C1.78954 1.70471 1.75992 1.7804 1.75992 1.87254V9.76995H0.219971V1.87254C0.219971 1.36217 0.401691 0.925264 0.765131 0.561824C1.12857 0.198384 1.56548 0.0166626 2.07585 0.0166626H19.924C20.4344 0.0166626 20.8713 0.198384 21.2347 0.561824C21.5982 0.925264 21.7799 1.36217 21.7799 1.87254V15.7819C21.7799 16.2281 21.6315 16.616 21.3347 16.9457C21.0379 17.2754 20.673 17.4633 20.2399 17.5094ZM7.91992 10.7374C6.93177 10.7374 6.08585 10.3855 5.38215 9.68186C4.67846 8.97816 4.32661 8.13224 4.32661 7.14409C4.32661 6.15592 4.67846 5.31 5.38215 4.60632C6.08585 3.90263 6.93177 3.55078 7.91992 3.55078C8.90807 3.55078 9.75399 3.90263 10.4577 4.60632C11.1614 5.31 11.5132 6.15592 11.5132 7.14409C11.5132 8.13224 11.1614 8.97816 10.4577 9.68186C9.75399 10.3855 8.90807 10.7374 7.91992 10.7374ZM7.91992 9.19742C8.48459 9.19742 8.96798 8.99637 9.37009 8.59426C9.7722 8.19215 9.97325 7.70876 9.97325 7.14409C9.97325 6.57942 9.7722 6.09604 9.37009 5.69392C8.96798 5.29181 8.48459 5.09076 7.91992 5.09076C7.35525 5.09076 6.87186 5.29181 6.46975 5.69392C6.06764 6.09604 5.86659 6.57942 5.86659 7.14409C5.86659 7.70876 6.06764 8.19215 6.46975 8.59426C6.87186 8.99637 7.35525 9.19742 7.91992 9.19742ZM0.219971 18.5558V16.2735C0.219971 15.7707 0.356517 15.3051 0.629611 14.8767C0.902738 14.4482 1.26767 14.1188 1.7244 13.8885C2.73922 13.391 3.76293 13.0178 4.79552 12.769C5.8281 12.5203 6.86957 12.3959 7.91992 12.3959C8.97027 12.3959 10.0117 12.5203 11.0443 12.769C12.0769 13.0178 13.1006 13.391 14.1154 13.8885C14.5722 14.1188 14.9371 14.4482 15.2102 14.8767C15.4833 15.3051 15.6199 15.7707 15.6199 16.2735V18.5558H0.219971ZM1.75992 17.0159H14.0799V16.2735C14.0799 16.0655 14.0197 15.873 13.8993 15.696C13.7788 15.519 13.6153 15.3745 13.4086 15.2626C12.5241 14.8269 11.6222 14.4969 10.7029 14.2725C9.78359 14.0481 8.85593 13.9359 7.91992 13.9359C6.98391 13.9359 6.05625 14.0481 5.13693 14.2725C4.21762 14.4969 3.31571 14.8269 2.43121 15.2626C2.22456 15.3745 2.06102 15.519 1.94059 15.696C1.82014 15.873 1.75992 16.0655 1.75992 16.2735V17.0159Z" fill="#BF1E2E"/>
</svg>
