<svg width="28" height="29" viewBox="0 0 28 29" fill="none" xmlns="http://www.w3.org/2000/svg">
<path d="M14.0004 28.4998C6.26783 28.4998 0 22.232 0 14.5002C0 6.76766 6.26783 0.499825 14.0004 0.499825C21.7322 0.499825 28 6.76766 28 14.5002C28 22.232 21.7322 28.4998 14.0004 28.4998Z" fill="#171717"/>
<path d="M11.8667 22.9626H15.2743V14.4282H17.6527L17.9057 11.5709H15.2743C15.2743 11.5709 15.2743 10.5042 15.2743 9.94362C15.2743 9.26976 15.4104 9.00344 16.0614 9.00344C16.5852 9.00344 17.9057 9.00344 17.9057 9.00344V6.03801C17.9057 6.03801 15.9614 6.03801 15.5457 6.03801C13.0099 6.03801 11.8667 7.15474 11.8667 9.29257C11.8667 11.1545 11.8667 11.5709 11.8667 11.5709H10.0938V14.4643H11.8667V22.9626Z" fill="white"/>
</svg>
