<svg width="1000" height="358" viewBox="0 0 1000 358" fill="none" xmlns="http://www.w3.org/2000/svg">
<path d="M1060 664.479C1060 505.487 996.786 353.007 884.264 240.583C771.742 128.159 619.13 65 460 65C300.87 65 148.258 128.159 35.736 240.583C-76.7858 353.007 -140 505.487 -140 664.479" stroke="url(#paint0_radial_428_2185)" stroke-dasharray="6 6"/>
<circle opacity="0.05" cx="872" cy="232" r="49" fill="#BF1E2E"/>
<circle cx="872" cy="232" r="36" fill="white"/>
<mask id="mask0_428_2185" style="mask-type:alpha" maskUnits="userSpaceOnUse" x="850" y="210" width="44" height="44">
<rect x="850" y="210" width="44" height="44" fill="#D9D9D9"/>
</mask>
<g mask="url(#mask0_428_2185)">
<path d="M859.73 247.583C858.804 247.583 858.02 247.263 857.379 246.621C856.737 245.979 856.416 245.195 856.416 244.269V219.731C856.416 218.805 856.737 218.021 857.379 217.379C858.02 216.738 858.804 216.417 859.73 216.417H884.268C885.195 216.417 885.979 216.738 886.62 217.379C887.262 218.021 887.583 218.805 887.583 219.731V244.269C887.583 245.195 887.262 245.979 886.62 246.621C885.979 247.263 885.195 247.583 884.268 247.583H859.73ZM859.166 225.879H884.833V219.731C884.833 219.59 884.774 219.461 884.656 219.343C884.539 219.226 884.41 219.167 884.268 219.167H859.73C859.589 219.167 859.46 219.226 859.342 219.343C859.225 219.461 859.166 219.59 859.166 219.731V225.879ZM859.166 235.371H884.833V228.629H859.166V235.371ZM859.73 244.833H884.268C884.41 244.833 884.539 244.775 884.656 244.657C884.774 244.54 884.833 244.41 884.833 244.269V238.121H859.166V244.269C859.166 244.41 859.225 244.54 859.342 244.657C859.46 244.775 859.589 244.833 859.73 244.833ZM861.705 224.166V220.852H865.018V224.166H861.705ZM861.705 233.657V230.343H865.018V233.657H861.705ZM861.705 243.148V239.834H865.018V243.148H861.705Z" fill="#BF1E2E"/>
</g>
<circle opacity="0.05" cx="435" cy="70" r="70" fill="#BF1E2E"/>
<circle cx="435" cy="70" r="53" fill="white"/>
<mask id="mask1_428_2185" style="mask-type:alpha" maskUnits="userSpaceOnUse" x="403" y="38" width="64" height="64">
<rect x="403" y="38" width="64" height="64" fill="#D9D9D9"/>
</mask>
<g mask="url(#mask1_428_2185)">
<path d="M435 61.8458C432.696 61.8458 430.735 61.0374 429.118 59.4205C427.501 57.8031 426.693 55.8425 426.693 53.5385C426.693 51.234 427.501 49.2734 429.118 47.6565C430.735 46.0391 432.696 45.2305 435 45.2305C437.304 45.2305 439.265 46.0391 440.882 47.6565C442.499 49.2734 443.307 51.234 443.307 53.5385C443.307 55.8425 442.499 57.8031 440.882 59.4205C439.265 61.0374 437.304 61.8458 435 61.8458ZM435 57.8458C436.196 57.8458 437.214 57.4271 438.051 56.5898C438.889 55.752 439.308 54.7349 439.308 53.5385C439.308 52.3416 438.889 51.3245 438.051 50.4871C437.214 49.6494 436.196 49.2305 435 49.2305C433.804 49.2305 432.786 49.6494 431.949 50.4871C431.111 51.3245 430.692 52.3416 430.692 53.5385C430.692 54.7349 431.111 55.752 431.949 56.5898C432.786 57.4271 433.804 57.8458 435 57.8458ZM435 94.3585L419.718 79.0765C418.932 78.2902 418.342 77.3971 417.949 76.3971C417.556 75.3971 417.359 74.3045 417.359 73.1191C417.359 70.7876 418.16 68.8216 419.762 67.2211C421.364 65.6207 423.332 64.8205 425.667 64.8205C426.809 64.8205 427.863 65.0349 428.829 65.4638C429.794 65.8931 430.678 66.5094 431.482 67.3125L435 70.8305L438.518 67.3125C439.304 66.5262 440.186 65.9142 441.164 65.4765C442.142 65.0391 443.202 64.8205 444.345 64.8205C446.669 64.8205 448.632 65.6207 450.236 67.2211C451.839 68.8216 452.641 70.7876 452.641 73.1191C452.641 74.3045 452.444 75.3971 452.051 76.3971C451.658 77.3971 451.068 78.2902 450.282 79.0765L435 94.3585ZM435 88.6565L447.39 76.2665C447.824 75.8322 448.141 75.3467 448.341 74.8098C448.541 74.2734 448.641 73.7169 448.641 73.1405C448.641 71.9885 448.229 70.9805 447.405 70.1165C446.581 69.2525 445.556 68.8205 444.331 68.8205C443.765 68.8205 443.254 68.9056 442.797 69.0758C442.339 69.2465 441.894 69.5509 441.461 69.9891L435 76.4511L428.59 70.0405C428.294 69.7356 427.913 69.456 427.445 69.2018C426.977 68.9476 426.388 68.8205 425.678 68.8205C424.446 68.8205 423.419 69.2502 422.595 70.1098C421.771 70.9698 421.359 71.9729 421.359 73.1191C421.359 73.6925 421.466 74.2382 421.679 74.7565C421.893 75.2742 422.203 75.7502 422.61 76.1845L435 88.6565Z" fill="#BF1E2E"/>
</g>
<circle opacity="0.05" cx="137" cy="162" r="49" fill="#BF1E2E"/>
<circle cx="137" cy="162" r="36" fill="white"/>
<mask id="mask2_428_2185" style="mask-type:alpha" maskUnits="userSpaceOnUse" x="115" y="140" width="44" height="44">
<rect x="115" y="140" width="44" height="44" fill="#D9D9D9"/>
</mask>
<g mask="url(#mask2_428_2185)">
<path d="M120.499 172.542C119.609 172.542 118.851 172.23 118.227 171.606C117.603 170.981 117.291 170.224 117.291 169.333C117.291 168.443 117.603 167.685 118.227 167.061C118.851 166.437 119.609 166.125 120.499 166.125C120.706 166.125 120.893 166.134 121.06 166.152C121.227 166.169 121.392 166.226 121.557 166.322L130.322 157.558C130.225 157.393 130.168 157.227 130.151 157.06C130.133 156.894 130.124 156.707 130.124 156.5C130.124 155.609 130.436 154.852 131.06 154.228C131.685 153.604 132.442 153.292 133.333 153.292C134.223 153.292 134.981 153.604 135.605 154.228C136.229 154.852 136.541 155.609 136.541 156.5C136.541 156.608 136.487 156.949 136.379 157.522L141.477 162.621C141.642 162.547 141.801 162.502 141.956 162.485C142.111 162.467 142.292 162.458 142.499 162.458C142.706 162.458 142.89 162.467 143.051 162.485C143.212 162.502 143.369 162.559 143.522 162.656L150.489 155.689C150.392 155.536 150.335 155.379 150.318 155.218C150.3 155.057 150.291 154.873 150.291 154.667C150.291 153.776 150.603 153.018 151.227 152.394C151.851 151.77 152.609 151.458 153.499 151.458C154.39 151.458 155.148 151.77 155.772 152.394C156.396 153.018 156.708 153.776 156.708 154.667C156.708 155.557 156.396 156.315 155.772 156.939C155.148 157.563 154.39 157.875 153.499 157.875C153.292 157.875 153.109 157.866 152.948 157.848C152.786 157.831 152.63 157.774 152.477 157.677L145.51 164.644C145.607 164.797 145.664 164.954 145.681 165.115C145.699 165.276 145.708 165.46 145.708 165.667C145.708 166.557 145.396 167.315 144.772 167.939C144.148 168.563 143.39 168.875 142.499 168.875C141.609 168.875 140.851 168.563 140.227 167.939C139.603 167.315 139.291 166.557 139.291 165.667C139.291 165.46 139.3 165.273 139.318 165.106C139.335 164.939 139.392 164.773 139.489 164.609L134.391 159.511C134.226 159.607 134.06 159.664 133.893 159.682C133.726 159.699 133.54 159.708 133.333 159.708C133.225 159.708 132.884 159.654 132.31 159.546L123.545 168.311C123.618 168.475 123.664 168.635 123.681 168.79C123.699 168.945 123.708 169.126 123.708 169.333C123.708 170.224 123.396 170.981 122.772 171.606C122.148 172.23 121.39 172.542 120.499 172.542Z" fill="#BF1E2E"/>
</g>
<defs>
<radialGradient id="paint0_radial_428_2185" cx="0" cy="0" r="1" gradientUnits="userSpaceOnUse" gradientTransform="translate(460 65) rotate(90) scale(352 704.612)">
<stop stop-color="#5F040D"/>
<stop offset="1" stop-color="#5F040D" stop-opacity="0"/>
</radialGradient>
</defs>
</svg>
