<svg width="61" height="60" viewBox="0 0 61 60" fill="none" xmlns="http://www.w3.org/2000/svg">
<circle cx="30.5" cy="30" r="30" fill="#FCF4F5"/>
<mask id="mask0_428_1938" style="mask-type:alpha" maskUnits="userSpaceOnUse" x="14" y="14" width="33" height="32">
<rect x="14.5" y="14" width="32" height="32" fill="#D9D9D9"/>
</mask>
<g mask="url(#mask0_428_1938)">
<path d="M35.6032 30.7176C34.5981 29.8356 33.6378 28.968 32.7225 28.1151C31.8071 27.2621 31.0049 26.4279 30.3161 25.6125C29.6272 24.7971 29.0797 24.0117 28.6738 23.2561C28.2678 22.5005 28.0648 21.7792 28.0648 21.092C28.0648 19.9758 28.4464 19.036 29.2096 18.2728C29.9729 17.5096 30.9126 17.1279 32.0289 17.1279C32.6972 17.1279 33.3404 17.2865 33.9583 17.6036C34.5763 17.9207 35.1246 18.3775 35.6032 18.9741C36.0818 18.3775 36.6301 17.9207 37.2481 17.6036C37.866 17.2865 38.5092 17.1279 39.1776 17.1279C40.2938 17.1279 41.2335 17.5096 41.9968 18.2728C42.76 19.036 43.1416 19.9758 43.1416 21.092C43.1416 21.7792 42.9386 22.5005 42.5327 23.2561C42.1267 24.0117 41.5793 24.7971 40.8904 25.6125C40.2015 26.4279 39.4028 27.2621 38.4942 28.1151C37.5857 28.968 36.622 29.8356 35.6032 30.7176ZM35.6032 28.0151C37.0169 26.745 38.2934 25.4826 39.4327 24.2279C40.572 22.9732 41.1417 21.9279 41.1417 21.092C41.1417 20.5211 40.9571 20.051 40.5878 19.6817C40.2186 19.3125 39.7485 19.1279 39.1776 19.1279C38.8408 19.1279 38.4951 19.2125 38.1404 19.3817C37.7857 19.551 37.4357 19.8561 37.0904 20.2972L35.6032 22.1074L34.1161 20.2972C33.7708 19.8561 33.4207 19.551 33.066 19.3817C32.7113 19.2125 32.3656 19.1279 32.0289 19.1279C31.4579 19.1279 30.9878 19.3125 30.6186 19.6817C30.2494 20.051 30.0647 20.5211 30.0647 21.092C30.0647 21.9279 30.6344 22.9732 31.7737 24.2279C32.913 25.4826 34.1895 26.745 35.6032 28.0151ZM32.9365 43.0509L23.1929 40.2714V42.1022H16.5264V29.3331H26.075L34.2391 32.3485C34.8442 32.5724 35.3468 32.9685 35.7468 33.5369C36.1468 34.1053 36.3468 34.7724 36.3468 35.5382H39.6801C40.6374 35.5382 41.4194 35.8625 42.0263 36.5112C42.6331 37.1599 42.9365 38.0151 42.9365 39.0766V39.9227L32.9365 43.0509ZM18.5263 40.1022H21.193V31.333H18.5263V40.1022ZM32.8699 40.9433L40.8289 38.4766C40.7878 38.1809 40.6592 37.9505 40.443 37.7856C40.2267 37.6206 39.9724 37.5381 39.6801 37.5381H33.3571C32.7109 37.5381 32.1015 37.4958 31.5289 37.4112C30.9562 37.3266 30.3861 37.186 29.8186 36.9894L27.3776 36.1638L28.0032 34.2459L30.593 35.1125C31.0186 35.263 31.5066 35.3715 32.0571 35.4382C32.6075 35.5048 33.3707 35.5382 34.3468 35.5382C34.3468 35.2083 34.2724 34.9236 34.1237 34.6843C33.975 34.445 33.7793 34.2835 33.5365 34.1997L25.7365 31.333H23.1929V38.2048L32.8699 40.9433Z" fill="#BF1E2E"/>
</g>
</svg>
