<svg width="61" height="60" viewBox="0 0 61 60" fill="none" xmlns="http://www.w3.org/2000/svg">
<circle cx="30.5" cy="30" r="30" fill="#FCF4F5"/>
<mask id="mask0_428_1945" style="mask-type:alpha" maskUnits="userSpaceOnUse" x="14" y="13" width="33" height="33">
<rect x="14.8457" y="13.6802" width="32" height="32" fill="#D9D9D9"/>
</mask>
<g mask="url(#mask0_428_1945)">
<path d="M42.8456 40.7315V20.4239C42.8456 20.3042 42.8072 20.2059 42.7302 20.129C42.6533 20.0521 42.555 20.0136 42.4353 20.0136H19.2559C19.1363 20.0136 19.038 20.0521 18.961 20.129C18.8841 20.2059 18.8456 20.3042 18.8456 20.4239V30.6803H16.8457V20.4239C16.8457 19.7611 17.0817 19.1937 17.5537 18.7217C18.0257 18.2497 18.5931 18.0137 19.2559 18.0137H42.4353C43.0982 18.0137 43.6656 18.2497 44.1376 18.7217C44.6096 19.1937 44.8456 19.7611 44.8456 20.4239V38.488C44.8456 39.0674 44.6529 39.5713 44.2674 39.9995C43.8819 40.4277 43.408 40.6717 42.8456 40.7315ZM26.8456 31.9367C25.5623 31.9367 24.4637 31.4797 23.5498 30.5659C22.6359 29.652 22.179 28.5534 22.179 27.2701C22.179 25.9867 22.6359 24.8881 23.5498 23.9743C24.4637 23.0604 25.5623 22.6034 26.8456 22.6034C28.1289 22.6034 29.2275 23.0604 30.1414 23.9743C31.0553 24.8881 31.5123 25.9867 31.5123 27.2701C31.5123 28.5534 31.0553 29.652 30.1414 30.5659C29.2275 31.4797 28.1289 31.9367 26.8456 31.9367ZM26.8456 29.9367C27.579 29.9367 28.2067 29.6756 28.729 29.1534C29.2512 28.6312 29.5123 28.0034 29.5123 27.2701C29.5123 26.5367 29.2512 25.909 28.729 25.3867C28.2067 24.8645 27.579 24.6034 26.8456 24.6034C26.1123 24.6034 25.4845 24.8645 24.9623 25.3867C24.4401 25.909 24.179 26.5367 24.179 27.2701C24.179 28.0034 24.4401 28.6312 24.9623 29.1534C25.4845 29.6756 26.1123 29.9367 26.8456 29.9367ZM16.8457 42.0905V39.1264C16.8457 38.4735 17.023 37.8688 17.3777 37.3124C17.7324 36.756 18.2063 36.3282 18.7995 36.029C20.1175 35.3829 21.4469 34.8983 22.788 34.5752C24.129 34.2521 25.4815 34.0906 26.8456 34.0906C28.2097 34.0906 29.5623 34.2521 30.9033 34.5752C32.2443 34.8983 33.5738 35.3829 34.8918 36.029C35.4849 36.3282 35.9588 36.756 36.3135 37.3124C36.6682 37.8688 36.8456 38.4735 36.8456 39.1264V42.0905H16.8457ZM18.8456 40.0905H34.8456V39.1264C34.8456 38.8564 34.7674 38.6064 34.611 38.3764C34.4546 38.1465 34.2422 37.9589 33.9738 37.8136C32.8251 37.2478 31.6538 36.8192 30.4599 36.5277C29.266 36.2363 28.0612 36.0905 26.8456 36.0905C25.63 36.0905 24.4253 36.2363 23.2314 36.5277C22.0375 36.8192 20.8661 37.2478 19.7174 37.8136C19.4491 37.9589 19.2367 38.1465 19.0803 38.3764C18.9238 38.6064 18.8456 38.8564 18.8456 39.1264V40.0905Z" fill="#BF1E2E"/>
</g>
</svg>
