<svg width="61" height="60" viewBox="0 0 61 60" fill="none" xmlns="http://www.w3.org/2000/svg">
<circle cx="30.5" cy="30" r="30" fill="#FCF4F5"/>
<mask id="mask0_428_1952" style="mask-type:alpha" maskUnits="userSpaceOnUse" x="14" y="13" width="33" height="33">
<rect x="14.5137" y="13.6802" width="32" height="32" fill="#D9D9D9"/>
</mask>
<g mask="url(#mask0_428_1952)">
<path d="M30.855 33.8033C32.2481 33.8033 33.44 33.3547 34.4307 32.4573C35.4213 31.5598 35.9167 30.4683 35.9167 29.183C35.9167 28.0617 35.5602 27.1091 34.8473 26.3253C34.1344 25.5416 33.2601 25.1497 32.2243 25.1497C31.3166 25.1497 30.5422 25.4423 29.9013 26.0277C29.2602 26.6132 28.9397 27.3308 28.9397 28.1803C28.9397 28.5512 29.0144 28.911 29.164 29.2597C29.3136 29.6086 29.5268 29.9326 29.8037 30.2317L31.2677 28.8187C31.1583 28.7402 31.0763 28.6506 31.0217 28.5497C30.967 28.4488 30.9397 28.3368 30.9397 28.2137C30.9397 27.935 31.0546 27.6936 31.2843 27.4893C31.5143 27.2851 31.8277 27.183 32.2243 27.183C32.703 27.183 33.1081 27.3749 33.4397 27.7587C33.7712 28.1422 33.937 28.6281 33.937 29.2163C33.937 29.9308 33.6473 30.544 33.068 31.056C32.4884 31.568 31.7619 31.824 30.8883 31.824C29.8354 31.824 28.9371 31.4018 28.1933 30.5573C27.4498 29.7129 27.078 28.6667 27.078 27.4187C27.078 26.7742 27.2024 26.1555 27.4513 25.5623C27.7 24.9692 28.0551 24.4419 28.5167 23.9803L27.078 22.5547C26.4269 23.1922 25.9252 23.9281 25.573 24.7623C25.2208 25.5966 25.0447 26.4709 25.0447 27.3853C25.0447 29.1616 25.6071 30.6752 26.732 31.9263C27.8567 33.1777 29.231 33.8033 30.855 33.8033ZM23.1807 42.347V36.9727C21.914 35.8171 20.9307 34.4928 20.2307 32.9997C19.5307 31.5063 19.1807 29.9512 19.1807 28.3343C19.1807 25.189 20.2832 22.5159 22.4883 20.315C24.6934 18.1141 27.3687 17.0137 30.514 17.0137C33.1038 17.0137 35.4196 17.7877 37.4613 19.3357C39.5033 20.8834 40.8294 22.8916 41.4397 25.36L42.9933 31.5137C43.096 31.8932 43.0268 32.2381 42.7857 32.5483C42.5448 32.8586 42.2234 33.0137 41.8217 33.0137H39.1807V37.27C39.1807 37.9349 38.9452 38.5029 38.4743 38.974C38.0032 39.4449 37.4352 39.6803 36.7703 39.6803H33.8473V42.347H31.8473V37.6803H36.7703C36.8901 37.6803 36.9884 37.6419 37.0653 37.565C37.1422 37.4881 37.1807 37.3898 37.1807 37.27V31.0137H40.7807L39.514 25.847C39.0029 23.8163 37.9098 22.1698 36.2347 20.9073C34.5593 19.6449 32.6524 19.0137 30.514 19.0137C27.9362 19.0137 25.7362 19.9158 23.914 21.72C22.0918 23.5242 21.1807 25.7152 21.1807 28.293C21.1807 29.6263 21.4529 30.8909 21.9973 32.0867C22.5418 33.2825 23.314 34.347 24.314 35.2803L25.1807 36.0803V42.347H23.1807Z" fill="#BF1E2E"/>
</g>
</svg>
