<svg width="61" height="60" viewBox="0 0 61 60" fill="none" xmlns="http://www.w3.org/2000/svg">
<circle cx="30.5" cy="30" r="30" fill="#FCF4F5"/>
<mask id="mask0_428_1959" style="mask-type:alpha" maskUnits="userSpaceOnUse" x="14" y="14" width="33" height="32">
<rect x="14.5" y="14" width="32" height="32" fill="#D9D9D9"/>
</mask>
<g mask="url(#mask0_428_1959)">
<path d="M24.577 42.6668C23.4506 42.6668 22.4894 42.2689 21.6937 41.4732C20.8979 40.6774 20.5 39.7163 20.5 38.5898V21.6668C20.5 20.4635 20.9213 19.4404 21.764 18.5975C22.6069 17.7548 23.63 17.3335 24.8333 17.3335H40.5V36.5128C39.9273 36.5128 39.438 36.7158 39.032 37.1218C38.626 37.5278 38.423 38.0172 38.423 38.5898C38.423 39.1625 38.626 39.6518 39.032 40.0578C39.438 40.4638 39.9273 40.6668 40.5 40.6668V42.6668H24.577ZM22.5 35.1258C22.8027 34.9189 23.127 34.7651 23.473 34.6642C23.8192 34.5635 24.1872 34.5132 24.577 34.5132H25.423V19.3335H24.8333C24.1922 19.3335 23.6431 19.5622 23.186 20.0195C22.7287 20.4766 22.5 21.0257 22.5 21.6668V35.1258ZM27.423 34.5132H38.5V19.3335H27.423V34.5132ZM24.577 40.6668H37.036C36.8427 40.3642 36.6922 40.0433 36.5847 39.7042C36.4769 39.3648 36.423 38.9934 36.423 38.5898C36.423 38.2087 36.4734 37.8429 36.5743 37.4925C36.6752 37.1421 36.8291 36.8155 37.036 36.5128H24.577C23.9821 36.5128 23.4872 36.7158 23.0923 37.1218C22.6974 37.5278 22.5 38.0172 22.5 38.5898C22.5 39.1847 22.6974 39.6796 23.0923 40.0745C23.4872 40.4694 23.9821 40.6668 24.577 40.6668Z" fill="#BF1E2E"/>
</g>
</svg>
