<svg width="61" height="60" viewBox="0 0 61 60" fill="none" xmlns="http://www.w3.org/2000/svg">
<circle cx="30.5" cy="30" r="30" fill="#FCF4F5"/>
<mask id="mask0_428_1970" style="mask-type:alpha" maskUnits="userSpaceOnUse" x="14" y="14" width="33" height="32">
<rect x="14.5" y="14" width="32" height="32" fill="#D9D9D9"/>
</mask>
<g mask="url(#mask0_428_1970)">
<path d="M30.5 27.1029C29.2167 27.1029 28.1181 26.6459 27.2043 25.7319C26.2903 24.8181 25.8333 23.7195 25.8333 22.4362C25.8333 21.1529 26.2903 20.0542 27.2043 19.1402C28.1181 18.2264 29.2167 17.7695 30.5 17.7695C31.7833 17.7695 32.8819 18.2264 33.7957 19.1402C34.7097 20.0542 35.1667 21.1529 35.1667 22.4362C35.1667 23.7195 34.7097 24.8181 33.7957 25.7319C32.8819 26.6459 31.7833 27.1029 30.5 27.1029ZM30.5 25.1029C31.2333 25.1029 31.8611 24.8418 32.3833 24.3195C32.9056 23.7973 33.1667 23.1695 33.1667 22.4362C33.1667 21.7029 32.9056 21.0751 32.3833 20.5529C31.8611 20.0306 31.2333 19.7695 30.5 19.7695C29.7667 19.7695 29.1389 20.0306 28.6167 20.5529C28.0944 21.0751 27.8333 21.7029 27.8333 22.4362C27.8333 23.1695 28.0944 23.7973 28.6167 24.3195C29.1389 24.8418 29.7667 25.1029 30.5 25.1029ZM20.5 41.9745V34.0565C20.5 33.4036 20.673 32.7989 21.019 32.2422C21.365 31.6858 21.8433 31.2512 22.454 30.9385C23.5787 30.3779 24.8257 29.9146 26.195 29.5489C27.5641 29.1831 28.9991 29.0002 30.5 29.0002C32.0009 29.0002 33.4359 29.1831 34.805 29.5489C36.1743 29.9146 37.4213 30.3779 38.546 30.9385C39.1567 31.2512 39.635 31.6858 39.981 32.2422C40.327 32.7989 40.5 33.404 40.5 34.0575V39.5642C40.5 40.2378 40.2667 40.8079 39.8 41.2745C39.3333 41.7412 38.7632 41.9745 38.0897 41.9745H27.8333C26.9309 41.9745 26.1711 41.666 25.554 41.0489C24.9369 40.4318 24.6283 39.6719 24.6283 38.7692C24.6283 37.8668 24.9369 37.107 25.554 36.4899C26.1711 35.8728 26.9309 35.5642 27.8333 35.5642H31.7667L33.795 31.3822C33.2737 31.2506 32.7241 31.1541 32.1463 31.0925C31.5683 31.031 31.0196 31.0002 30.5 31.0002C29.0624 31.0002 27.7407 31.1733 26.5347 31.5195C25.3287 31.8655 24.2812 32.2668 23.3923 32.7232C23.1103 32.8601 22.8911 33.049 22.7347 33.2899C22.5782 33.531 22.5 33.7865 22.5 34.0565V41.9745H20.5ZM27.8333 39.9745H29.664L30.8283 37.5642H27.8333C27.5069 37.5642 27.2244 37.6834 26.986 37.9219C26.7476 38.1603 26.6283 38.4428 26.6283 38.7692C26.6283 39.0959 26.7476 39.3784 26.986 39.6169C27.2244 39.8553 27.5069 39.9745 27.8333 39.9745ZM31.8667 39.9745H38.0897C38.2094 39.9745 38.3078 39.9361 38.3847 39.8592C38.4616 39.7823 38.5 39.684 38.5 39.5642V34.0565C38.5 33.7865 38.4176 33.531 38.2527 33.2899C38.0876 33.049 37.8794 32.8601 37.6283 32.7232C37.353 32.5814 37.0577 32.4425 36.7423 32.3065C36.427 32.1708 36.1001 32.0404 35.7617 31.9155L31.8667 39.9745Z" fill="#BF1E2E"/>
</g>
</svg>
