<svg width="1202" height="620" viewBox="0 0 1202 620" fill="none" xmlns="http://www.w3.org/2000/svg">
<path d="M1201 619.479C1201 460.487 1137.79 308.007 1025.26 195.583C912.742 83.1592 760.13 20 601 20C441.87 20 289.258 83.1592 176.736 195.583C64.2142 308.007 1.00002 460.487 1 619.479" stroke="url(#paint0_linear_402_369)" stroke-dasharray="6 6"/>
<circle opacity="0.05" cx="59" cy="369" r="49" fill="#1B3664"/>
<circle cx="59" cy="369" r="36" fill="white"/>
<mask id="mask0_402_369" style="mask-type:alpha" maskUnits="userSpaceOnUse" x="37" y="347" width="44" height="44">
<rect x="37" y="347" width="44" height="44" fill="#D9D9D9"/>
</mask>
<g mask="url(#mask0_402_369)">
<path d="M46.7302 384.583C45.8041 384.583 45.0202 384.262 44.3785 383.62C43.7368 382.979 43.416 382.195 43.416 381.269V356.73C43.416 355.804 43.7368 355.02 44.3785 354.379C45.0202 353.737 45.8041 353.416 46.7302 353.416H54.8886C55.0343 352.387 55.4891 351.518 56.253 350.811C57.0169 350.103 57.9323 349.75 58.9993 349.75C60.0663 349.75 60.9818 350.103 61.7457 350.811C62.5096 351.518 62.9644 352.387 63.1101 353.416H71.2685C72.1946 353.416 72.9785 353.737 73.6202 354.379C74.2618 355.02 74.5827 355.804 74.5827 356.73V381.269C74.5827 382.195 74.2618 382.979 73.6202 383.62C72.9785 384.262 72.1946 384.583 71.2685 384.583H46.7302ZM58.9993 354.968C59.3966 354.968 59.725 354.838 59.9848 354.578C60.2445 354.318 60.3743 353.99 60.3743 353.593C60.3743 353.195 60.2445 352.867 59.9848 352.607C59.725 352.347 59.3966 352.218 58.9993 352.218C58.6021 352.218 58.2737 352.347 58.0139 352.607C57.7542 352.867 57.6243 353.195 57.6243 353.593C57.6243 353.99 57.7542 354.318 58.0139 354.578C58.2737 354.838 58.6021 354.968 58.9993 354.968ZM46.166 380.077C47.816 378.458 49.7334 377.182 51.9181 376.25C54.1028 375.318 56.4632 374.852 58.9993 374.852C61.5355 374.852 63.8959 375.318 66.0806 376.25C68.2653 377.182 70.1827 378.458 71.8327 380.077V356.73C71.8327 356.589 71.7739 356.46 71.6562 356.343C71.5389 356.225 71.4096 356.166 71.2685 356.166H46.7302C46.5891 356.166 46.4598 356.225 46.3425 356.343C46.2248 356.46 46.166 356.589 46.166 356.73V380.077ZM58.9993 370.903C60.6539 370.903 62.0607 370.324 63.2197 369.165C64.3783 368.006 64.9577 366.6 64.9577 364.945C64.9577 363.291 64.3783 361.884 63.2197 360.725C62.0607 359.566 60.6539 358.987 58.9993 358.987C57.3448 358.987 55.938 359.566 54.779 360.725C53.6203 361.884 53.041 363.291 53.041 364.945C53.041 366.6 53.6203 368.006 54.779 369.165C55.938 370.324 57.3448 370.903 58.9993 370.903ZM48.8101 381.833H69.1886V381.445C67.7405 380.152 66.1523 379.189 64.4237 378.554C62.6949 377.919 60.8868 377.602 58.9993 377.602C57.1355 377.602 55.3362 377.916 53.6016 378.545C51.8669 379.174 50.2698 380.129 48.8101 381.41V381.833ZM58.9993 368.153C58.1178 368.153 57.3628 367.839 56.7343 367.21C56.1054 366.582 55.791 365.827 55.791 364.945C55.791 364.064 56.1054 363.309 56.7343 362.68C57.3628 362.051 58.1178 361.737 58.9993 361.737C59.8809 361.737 60.6359 362.051 61.2644 362.68C61.8933 363.309 62.2077 364.064 62.2077 364.945C62.2077 365.827 61.8933 366.582 61.2644 367.21C60.6359 367.839 59.8809 368.153 58.9993 368.153Z" fill="#1B3664"/>
</g>
<circle opacity="0.05" cx="1042" cy="221" r="49" fill="#1B3664"/>
<circle cx="1042" cy="221" r="36" fill="white"/>
<mask id="mask1_402_369" style="mask-type:alpha" maskUnits="userSpaceOnUse" x="1020" y="199" width="44" height="44">
<rect x="1020" y="199" width="44" height="44" fill="#D9D9D9"/>
</mask>
<g mask="url(#mask1_402_369)">
<path d="M1033.5 229.709H1036.25V221H1033.5V229.709ZM1047.75 229.709H1050.5V211.834H1047.75V229.709ZM1040.62 229.709H1043.37V224.667H1040.62V229.709ZM1040.62 221H1043.37V217.334H1040.62V221ZM1029.73 236.584C1028.8 236.584 1028.02 236.263 1027.38 235.621C1026.74 234.979 1026.42 234.196 1026.42 233.269V208.731C1026.42 207.805 1026.74 207.021 1027.38 206.379C1028.02 205.738 1028.8 205.417 1029.73 205.417H1054.27C1055.19 205.417 1055.98 205.738 1056.62 206.379C1057.26 207.021 1057.58 207.805 1057.58 208.731V233.269C1057.58 234.196 1057.26 234.979 1056.62 235.621C1055.98 236.263 1055.19 236.584 1054.27 236.584H1029.73ZM1029.73 233.834H1054.27C1054.41 233.834 1054.54 233.775 1054.66 233.657C1054.77 233.54 1054.83 233.411 1054.83 233.269V208.731C1054.83 208.59 1054.77 208.461 1054.66 208.343C1054.54 208.226 1054.41 208.167 1054.27 208.167H1029.73C1029.59 208.167 1029.46 208.226 1029.34 208.343C1029.22 208.461 1029.17 208.59 1029.17 208.731V233.269C1029.17 233.411 1029.22 233.54 1029.34 233.657C1029.46 233.775 1029.59 233.834 1029.73 233.834Z" fill="#1B3664"/>
</g>
<circle opacity="0.05" cx="367" cy="70" r="70" fill="#1B3664"/>
<circle cx="367" cy="70" r="53" fill="white"/>
<mask id="mask2_402_369" style="mask-type:alpha" maskUnits="userSpaceOnUse" x="327" y="37" width="66" height="66">
<rect x="327" y="37" width="66" height="66" fill="#D9D9D9"/>
</mask>
<g mask="url(#mask2_402_369)">
<path d="M357.953 94.0625V88.3088C355.559 87.8821 353.498 86.9469 351.768 85.5031C350.039 84.0594 348.762 82.0402 347.937 79.4456L351.755 77.8588C352.496 79.9882 353.55 81.6171 354.92 82.7456C356.29 83.8735 358.119 84.4375 360.407 84.4375C362.392 84.4375 364.143 83.9652 365.661 83.0206C367.179 82.0755 367.938 80.577 367.938 78.525C367.938 76.7444 367.368 75.3226 366.227 74.2598C365.086 73.1969 362.727 72.0872 359.149 70.9309C355.401 69.7461 352.798 68.3605 351.34 66.7743C349.882 65.1875 349.153 63.1919 349.153 60.7875C349.153 58.0201 350.125 55.8421 352.068 54.2535C354.01 52.6654 355.972 51.7831 357.953 51.6066V45.9375H362.078V51.6066C364.176 51.8853 365.939 52.5675 367.366 53.6533C368.795 54.7391 369.905 56.1512 370.698 57.8897L366.933 59.6132C366.33 58.2877 365.489 57.2583 364.41 56.525C363.332 55.7917 361.913 55.425 360.153 55.425C358.084 55.425 356.421 55.9292 355.163 56.9375C353.907 57.9458 353.278 59.2292 353.278 60.7875C353.278 62.388 353.922 63.6679 355.209 64.6272C356.495 65.586 358.887 66.5907 362.385 67.6412C365.635 68.6284 368.061 70.0353 369.662 71.8617C371.263 73.6877 372.063 75.8806 372.063 78.4404C372.063 81.4476 371.096 83.7814 369.162 85.4419C367.228 87.1029 364.867 88.0868 362.078 88.3934V94.0625H357.953Z" fill="#1B3664"/>
</g>
<mask id="mask3_402_369" style="mask-type:alpha" maskUnits="userSpaceOnUse" x="371" y="51" width="37" height="37">
<rect x="371.074" y="51.8394" width="36" height="36" fill="#D9D9D9"/>
</mask>
<g mask="url(#mask3_402_369)">
<path d="M389.074 84.0894L379.065 74.0799L380.631 72.4761L387.949 79.7942V69.0752H390.199V79.8088L397.518 72.5136L399.084 74.0799L389.074 84.0894ZM387.949 66.0752V61.5752H390.199V66.0752H387.949ZM387.949 58.5752V55.5752H390.199V58.5752H387.949Z" fill="#1B3664"/>
</g>
<defs>
<linearGradient id="paint0_linear_402_369" x1="601" y1="20" x2="601" y2="619.479" gradientUnits="userSpaceOnUse">
<stop stop-color="#1B3664"/>
<stop offset="1" stop-color="#1B3664" stop-opacity="0"/>
</linearGradient>
</defs>
</svg>
