<svg width="378" height="204" viewBox="0 0 378 204" fill="none" xmlns="http://www.w3.org/2000/svg">
<path d="M377 203.102C377 153.285 357.193 105.508 321.936 70.2817C286.679 35.0555 238.861 15.2656 189 15.2656C139.139 15.2656 91.3208 35.0555 56.0639 70.2817C20.8071 105.508 1.00001 153.285 1 203.102" stroke="url(#paint0_linear_669_2225)" stroke-dasharray="4 4"/>
<circle opacity="0.05" cx="24" cy="115" r="20" fill="#1B3664"/>
<circle cx="24.0011" cy="115.001" r="15.0011" fill="white"/>
<mask id="mask0_669_2225" style="mask-type:alpha" maskUnits="userSpaceOnUse" x="14" y="105" width="21" height="21">
<rect x="14" y="105.002" width="20.0014" height="20.0014" fill="#D9D9D9"/>
</mask>
<g mask="url(#mask0_669_2225)">
<path d="M18.4226 122.086C18.0016 122.086 17.6452 121.941 17.3535 121.649C17.0619 121.357 16.916 121.001 16.916 120.58V109.425C16.916 109.004 17.0619 108.648 17.3535 108.356C17.6452 108.065 18.0016 107.919 18.4226 107.919H22.1312C22.1974 107.451 22.4042 107.056 22.7514 106.734C23.0987 106.413 23.5148 106.252 23.9999 106.252C24.4849 106.252 24.901 106.413 25.2483 106.734C25.5955 107.056 25.8023 107.451 25.8685 107.919H29.5771C29.9981 107.919 30.3545 108.065 30.6462 108.356C30.9379 108.648 31.0837 109.004 31.0837 109.425V120.58C31.0837 121.001 30.9379 121.357 30.6462 121.649C30.3545 121.941 29.9981 122.086 29.5771 122.086H18.4226ZM23.9999 108.624C24.1804 108.624 24.3297 108.565 24.4478 108.447C24.5659 108.329 24.6249 108.18 24.6249 107.999C24.6249 107.818 24.5659 107.669 24.4478 107.551C24.3297 107.433 24.1804 107.374 23.9999 107.374C23.8193 107.374 23.67 107.433 23.5519 107.551C23.4338 107.669 23.3748 107.818 23.3748 107.999C23.3748 108.18 23.4338 108.329 23.5519 108.447C23.67 108.565 23.8193 108.624 23.9999 108.624ZM18.1661 120.038C18.9162 119.302 19.7878 118.722 20.7809 118.298C21.774 117.875 22.847 117.663 23.9999 117.663C25.1527 117.663 26.2257 117.875 27.2188 118.298C28.212 118.722 29.0836 119.302 29.8336 120.038V109.425C29.8336 109.361 29.8069 109.302 29.7534 109.249C29.7001 109.196 29.6413 109.169 29.5771 109.169H18.4226C18.3584 109.169 18.2997 109.196 18.2463 109.249C18.1928 109.302 18.1661 109.361 18.1661 109.425V120.038ZM23.9999 115.868C24.752 115.868 25.3915 115.605 25.9183 115.078C26.445 114.551 26.7084 113.912 26.7084 113.16C26.7084 112.407 26.445 111.768 25.9183 111.241C25.3915 110.714 24.752 110.451 23.9999 110.451C23.2477 110.451 22.6082 110.714 22.0814 111.241C21.5547 111.768 21.2913 112.407 21.2913 113.16C21.2913 113.912 21.5547 114.551 22.0814 115.078C22.6082 115.605 23.2477 115.868 23.9999 115.868ZM19.3681 120.836H28.6317V120.66C27.9734 120.072 27.2514 119.634 26.4657 119.346C25.6798 119.057 24.8578 118.913 23.9999 118.913C23.1526 118.913 22.3347 119.056 21.5461 119.342C20.7576 119.628 20.0316 120.062 19.3681 120.644V120.836ZM23.9999 114.618C23.5991 114.618 23.2559 114.475 22.9702 114.189C22.6843 113.903 22.5414 113.56 22.5414 113.16C22.5414 112.759 22.6843 112.416 22.9702 112.13C23.2559 111.844 23.5991 111.701 23.9999 111.701C24.4006 111.701 24.7438 111.844 25.0295 112.13C25.3154 112.416 25.4583 112.759 25.4583 113.16C25.4583 113.56 25.3154 113.903 25.0295 114.189C24.7438 114.475 24.4006 114.618 23.9999 114.618Z" fill="#1B3664"/>
</g>
<circle opacity="0.05" cx="329" cy="81" r="20" fill="#1B3664"/>
<circle cx="329" cy="81" r="15" fill="white"/>
<mask id="mask1_669_2225" style="mask-type:alpha" maskUnits="userSpaceOnUse" x="319" y="71" width="20" height="20">
<rect x="319" y="71" width="20" height="20" fill="#D9D9D9"/>
</mask>
<g mask="url(#mask1_669_2225)">
<path d="M325.136 84.9596H326.386V81.0013H325.136V84.9596ZM331.611 84.9596H332.86V76.8346H331.611V84.9596ZM328.373 84.9596H329.623V82.668H328.373V84.9596ZM328.373 81.0013H329.623V79.3346H328.373V81.0013ZM323.421 88.0846C323.001 88.0846 322.644 87.9388 322.353 87.6471C322.061 87.3555 321.915 86.9991 321.915 86.5782V75.4244C321.915 75.0035 322.061 74.6471 322.353 74.3555C322.644 74.0638 323.001 73.918 323.421 73.918H334.575C334.996 73.918 335.353 74.0638 335.644 74.3555C335.936 74.6471 336.082 75.0035 336.082 75.4244V86.5782C336.082 86.9991 335.936 87.3555 335.644 87.6471C335.353 87.9388 334.996 88.0846 334.575 88.0846H323.421ZM323.421 86.8346H334.575C334.639 86.8346 334.698 86.8079 334.751 86.7544C334.805 86.7011 334.832 86.6423 334.832 86.5782V75.4244C334.832 75.3603 334.805 75.3015 334.751 75.2482C334.698 75.1947 334.639 75.168 334.575 75.168H323.421C323.357 75.168 323.299 75.1947 323.245 75.2482C323.192 75.3015 323.165 75.3603 323.165 75.4244V86.5782C323.165 86.6423 323.192 86.7011 323.245 86.7544C323.299 86.8079 323.357 86.8346 323.421 86.8346Z" fill="#1B3664"/>
</g>
<circle opacity="0.05" cx="121" cy="30" r="30" fill="#1B3664"/>
<circle cx="121" cy="30" r="22.5" fill="white"/>
<mask id="mask2_669_2225" style="mask-type:alpha" maskUnits="userSpaceOnUse" x="103" y="16" width="28" height="28">
<rect x="103.5" y="16.25" width="27.5" height="27.5" fill="#D9D9D9"/>
</mask>
<g mask="url(#mask2_669_2225)">
<path d="M116.396 40.0228V37.6254C115.399 37.4476 114.54 37.0579 113.819 36.4564C113.099 35.8548 112.566 35.0135 112.223 33.9324L113.814 33.2712C114.122 34.1585 114.562 34.8372 115.132 35.3074C115.703 35.7774 116.465 36.0124 117.418 36.0124C118.246 36.0124 118.975 35.8156 119.608 35.422C120.24 35.0282 120.556 34.4038 120.556 33.5488C120.556 32.8069 120.319 32.2145 119.844 31.7716C119.368 31.3288 118.385 30.8664 116.894 30.3846C115.333 29.8909 114.248 29.3136 113.641 28.6527C113.033 27.9915 112.729 27.16 112.729 26.1582C112.729 25.0051 113.134 24.0976 113.944 23.4357C114.753 22.774 115.57 22.4064 116.396 22.3328V19.9707H118.115V22.3328C118.989 22.449 119.723 22.7332 120.318 23.1856C120.913 23.638 121.376 24.2264 121.706 24.9508L120.138 25.6689C119.886 25.1166 119.536 24.6877 119.086 24.3822C118.637 24.0766 118.046 23.9238 117.313 23.9238C116.45 23.9238 115.757 24.1339 115.234 24.554C114.71 24.9742 114.448 25.5089 114.448 26.1582C114.448 26.8251 114.716 27.3584 115.253 27.7581C115.789 28.1576 116.785 28.5762 118.243 29.0139C119.597 29.4253 120.608 30.0114 121.275 30.7725C121.942 31.5333 122.275 32.447 122.275 33.5136C122.275 34.7666 121.872 35.739 121.066 36.4309C120.261 37.123 119.277 37.5329 118.115 37.6606V40.0228H116.396Z" fill="#1B3664"/>
</g>
<mask id="mask3_669_2225" style="mask-type:alpha" maskUnits="userSpaceOnUse" x="121" y="22" width="16" height="16">
<rect x="121.893" y="22.5" width="15" height="15" fill="#D9D9D9"/>
</mask>
<g mask="url(#mask3_669_2225)">
<path d="M129.391 35.9356L125.221 31.765L125.873 31.0967L128.923 34.1459V29.6797H129.86V34.152L132.909 31.1123L133.562 31.765L129.391 35.9356ZM128.923 28.4297V26.5547H129.86V28.4297H128.923ZM128.923 25.3047V24.0547H129.86V25.3047H128.923Z" fill="#1B3664"/>
</g>
<defs>
<linearGradient id="paint0_linear_669_2225" x1="189" y1="15.2656" x2="189" y2="203.102" gradientUnits="userSpaceOnUse">
<stop stop-color="#1B3664"/>
<stop offset="1" stop-color="#1B3664" stop-opacity="0"/>
</linearGradient>
</defs>
</svg>
