<svg width="60" height="60" viewBox="0 0 60 60" fill="none" xmlns="http://www.w3.org/2000/svg">
<mask id="mask0_428_1931" style="mask-type:alpha" maskUnits="userSpaceOnUse" x="0" y="0" width="60" height="60">
<rect width="60" height="60" fill="#D9D9D9"/>
</mask>
<g mask="url(#mask0_428_1931)">
<path d="M18.75 8.75C20.9325 8.75 22.995 9.26042 24.9375 10.2812C26.88 11.3021 28.5675 12.766 30 14.6731C31.4325 12.766 33.12 11.3021 35.0625 10.2812C37.005 9.26042 39.0675 8.75 41.25 8.75C44.7979 8.75 47.7683 9.94625 50.1613 12.3387C52.5538 14.7317 53.75 17.7021 53.75 21.25C53.75 21.4904 53.7396 21.7227 53.7188 21.9469C53.6979 22.1715 53.6794 22.404 53.6631 22.6444H49.9137C49.9554 22.404 49.9802 22.1715 49.9881 21.9469C49.996 21.7227 50 21.4904 50 21.25C50 18.75 49.1667 16.6667 47.5 15C45.8333 13.3333 43.75 12.5 41.25 12.5C39.2758 12.5 37.4513 13.06 35.7762 14.18C34.1017 15.3004 32.7756 16.859 31.7981 18.8556H28.2019C27.2081 16.8427 25.8779 15.2802 24.2113 14.1681C22.5446 13.056 20.7242 12.5 18.75 12.5C16.2658 12.5 14.1865 13.3333 12.5119 15C10.8373 16.6667 10 18.75 10 21.25C10 21.4904 10.004 21.7227 10.0119 21.9469C10.0198 22.1715 10.0446 22.404 10.0863 22.6444H6.33687C6.32063 22.404 6.30208 22.1715 6.28125 21.9469C6.26042 21.7227 6.25 21.4904 6.25 21.25C6.25 17.7021 7.44625 14.7317 9.83875 12.3387C12.2317 9.94625 15.2021 8.75 18.75 8.75ZM14.885 37.3556H20.13C21.4633 38.6635 22.9377 40.0794 24.5531 41.6031C26.1685 43.1273 27.9842 44.8013 30 46.625C32.0158 44.8013 33.8315 43.1273 35.4469 41.6031C37.0623 40.0794 38.5367 38.6635 39.87 37.3556H45.1538C43.6183 38.9935 41.8354 40.7773 39.805 42.7069C37.7746 44.636 35.426 46.8042 32.7594 49.2113L30 51.6919L27.2406 49.2113C24.574 46.8042 22.2317 44.636 20.2138 42.7069C18.1963 40.7773 16.42 38.9935 14.885 37.3556ZM27.625 39.375C28.0225 39.375 28.3631 39.2588 28.6469 39.0263C28.9302 38.7942 29.1392 38.4921 29.2738 38.12L33.0575 26.7306L35.8219 30.87C36.0302 31.1713 36.2979 31.4142 36.625 31.5987C36.9521 31.7829 37.3079 31.875 37.6925 31.875H56.875V28.125H38.5288L34.0719 21.4856C33.886 21.2069 33.6433 20.9977 33.3438 20.8581C33.0442 20.719 32.7212 20.6494 32.375 20.6494C31.9775 20.6494 31.6329 20.7654 31.3412 20.9975C31.0496 21.23 30.8446 21.5321 30.7262 21.9038L26.9425 33.2787L24.1681 29.13C23.9598 28.8287 23.6923 28.5858 23.3656 28.4013C23.0385 28.2171 22.6827 28.125 22.2981 28.125H3.125V31.875H21.4231L25.9037 38.5381C26.0896 38.8331 26.3365 39.0465 26.6444 39.1781C26.9519 39.3094 27.2788 39.375 27.625 39.375Z" fill="white"/>
</g>
</svg>
