<svg width="80" height="80" viewBox="0 0 80 80" fill="none" xmlns="http://www.w3.org/2000/svg">
<circle cx="40" cy="40" r="40" fill="#FBFBFB"/>
<mask id="mask0_407_643" style="mask-type:alpha" maskUnits="userSpaceOnUse" x="18" y="18" width="44" height="44">
<rect x="18" y="18" width="44" height="44" fill="#D9D9D9"/>
</mask>
<g mask="url(#mask0_407_643)">
<path d="M52.9036 55.5835L50.9717 53.669L54.3176 50.2774H46.0286V47.5274H54.3176L50.9717 44.1357L52.9036 42.2212L59.5847 48.9024L52.9036 55.5835ZM36.421 45.0418C37.9677 45.0418 39.3727 44.6746 40.6358 43.94C41.8993 43.2054 42.9165 42.233 43.6874 41.0227C42.6766 40.2423 41.556 39.6477 40.3256 39.2389C39.0954 38.8297 37.7951 38.6252 36.4247 38.6252C35.0543 38.6252 33.7527 38.8297 32.5201 39.2389C31.2872 39.6477 30.1655 40.2423 29.155 41.0227C29.926 42.233 30.943 43.2054 32.2062 43.94C33.4696 44.6746 34.8746 45.0418 36.421 45.0418ZM36.421 35.8752C37.312 35.8752 38.0695 35.5632 38.6934 34.9392C39.3174 34.315 39.6293 33.5575 39.6293 32.6668C39.6293 31.7761 39.3174 31.0187 38.6934 30.3944C38.0695 29.7705 37.312 29.4585 36.421 29.4585C35.5303 29.4585 34.773 29.7705 34.1491 30.3944C33.5248 31.0187 33.2127 31.7761 33.2127 32.6668C33.2127 33.5575 33.5248 34.315 34.1491 34.9392C34.773 35.5632 35.5303 35.8752 36.421 35.8752ZM36.421 57.4342C31.8071 53.4364 28.3473 49.7158 26.0416 46.2725C23.7359 42.8288 22.583 39.6674 22.583 36.7882C22.583 32.5574 23.9516 29.1323 26.6888 26.5128C29.4256 23.8933 32.6697 22.5835 36.421 22.5835C40.1723 22.5835 43.4166 23.8933 46.1537 26.5128C48.8906 29.1323 50.259 32.5574 50.259 36.7882C50.259 37.0519 50.2544 37.3229 50.2453 37.6012C50.2358 37.8796 50.2005 38.1598 50.1394 38.4418H47.3436C47.4047 38.1598 47.4476 37.8796 47.4723 37.6012C47.4971 37.3229 47.5095 37.0519 47.5095 36.7882C47.5095 33.446 46.4477 30.6984 44.3241 28.5455C42.2004 26.3926 39.5661 25.3161 36.421 25.3161C33.2762 25.3161 30.642 26.3926 28.5184 28.5455C26.3948 30.6984 25.333 33.446 25.333 36.7882C25.333 39.0047 26.2844 41.5872 28.187 44.5358C30.0897 47.4844 32.8344 50.5641 36.421 53.7749C37.1592 53.1403 37.8498 52.4968 38.4927 51.8444C39.1353 51.1924 39.7493 50.5525 40.3347 49.9249L40.6501 50.2228C40.8606 50.4214 41.0856 50.6401 41.3252 50.8787C41.5647 51.117 41.7815 51.3386 41.9756 51.5433L42.2666 51.8499C41.4333 52.751 40.5281 53.6667 39.551 54.5972C38.5738 55.5273 37.5305 56.473 36.421 57.4342Z" fill="#BF1E2E"/>
</g>
</svg>
