<svg width="80" height="80" viewBox="0 0 80 80" fill="none" xmlns="http://www.w3.org/2000/svg">
<circle cx="40" cy="40" r="40" fill="#FBFBFB"/>
<mask id="mask0_407_650" style="mask-type:alpha" maskUnits="userSpaceOnUse" x="18" y="18" width="44" height="44">
<rect x="18" y="18" width="44" height="44" fill="#D9D9D9"/>
</mask>
<g mask="url(#mask0_407_650)">
<path d="M42.7163 57.4168C39.6647 57.4168 37.0652 56.3467 34.9178 54.2066C32.7703 52.0665 31.6966 49.4699 31.6966 46.4167V45.4153C29.2216 45.0935 27.1515 43.99 25.4862 42.1048C23.8209 40.2198 22.9883 37.9904 22.9883 35.4167V24.8751H28.4883V23.0417H31.2383V29.4584H28.4883V27.6251H25.7383V35.4167C25.7383 37.4334 26.4563 39.1598 27.8924 40.5959C29.3286 42.032 31.0549 42.7501 33.0716 42.7501C35.0883 42.7501 36.8147 42.032 38.2508 40.5959C39.6869 39.1598 40.4049 37.4334 40.4049 35.4167V27.6251H37.6549V29.4584H34.9049V23.0417H37.6549V24.8751H43.1549V35.4167C43.1549 37.9904 42.3223 40.2198 40.657 42.1048C38.9918 43.99 36.9216 45.0935 34.4466 45.4153V46.4167C34.4466 48.7084 35.2504 50.6563 36.8579 52.2605C38.4654 53.8647 40.4175 54.6667 42.714 54.6667C45.0057 54.6667 46.9536 53.8647 48.5578 52.2605C50.1619 50.6563 50.964 48.7084 50.964 46.4167V43.4518C50.0003 43.1673 49.2071 42.6132 48.5844 41.7894C47.9613 40.9656 47.6498 40.0283 47.6498 38.9775C47.6498 37.6753 48.106 36.5682 49.0184 35.6565C49.9305 34.7447 51.0381 34.2888 52.3413 34.2888C53.6442 34.2888 54.7511 34.7447 55.6619 35.6565C56.5728 36.5682 57.0282 37.6753 57.0282 38.9775C57.0282 40.0283 56.7167 40.9656 56.0937 41.7894C55.471 42.6132 54.6778 43.1673 53.714 43.4518V46.4167C53.714 49.4699 52.644 52.0665 50.5039 54.2066C48.3638 56.3467 45.7679 57.4168 42.7163 57.4168ZM52.339 40.9167C52.882 40.9167 53.341 40.7293 53.7159 40.3544C54.0908 39.9795 54.2782 39.5205 54.2782 38.9775C54.2782 38.4346 54.0908 37.9758 53.7159 37.6012C53.341 37.2262 52.882 37.0388 52.339 37.0388C51.7961 37.0388 51.3371 37.2262 50.9622 37.6012C50.5873 37.9758 50.3998 38.4346 50.3998 38.9775C50.3998 39.5205 50.5873 39.9795 50.9622 40.3544C51.3371 40.7293 51.7961 40.9167 52.339 40.9167Z" fill="#BF1E2E"/>
</g>
</svg>
