<svg width="80" height="80" viewBox="0 0 80 80" fill="none" xmlns="http://www.w3.org/2000/svg">
<circle cx="40" cy="40" r="40" fill="#FBFBFB"/>
<mask id="mask0_407_657" style="mask-type:alpha" maskUnits="userSpaceOnUse" x="18" y="18" width="44" height="44">
<rect x="18" y="18" width="44" height="44" fill="#D9D9D9"/>
</mask>
<g mask="url(#mask0_407_657)">
<path d="M43.2083 41.3046C41.9274 41.3046 40.8433 40.8609 39.956 39.9736C39.0686 39.0862 38.625 38.0021 38.625 36.7212C38.625 35.4404 39.0686 34.3562 39.956 33.4689C40.8433 32.5816 41.9274 32.1379 43.2083 32.1379C44.4892 32.1379 45.5733 32.5816 46.4606 33.4689C47.348 34.3562 47.7916 35.4404 47.7916 36.7212C47.7916 38.0021 47.348 39.0862 46.4606 39.9736C45.5733 40.8609 44.4892 41.3046 43.2083 41.3046ZM31.1152 46.981C30.204 46.981 29.4239 46.6565 28.7749 46.0075C28.1259 45.3585 27.8014 44.5783 27.8014 43.6668V29.7757C27.8014 28.8645 28.1259 28.0844 28.7749 27.4354C29.4239 26.7864 30.204 26.4619 31.1152 26.4619H55.301C56.2125 26.4619 56.9927 26.7864 57.6417 27.4354C58.2907 28.0844 58.6152 28.8645 58.6152 29.7757V43.6668C58.6152 44.5783 58.2907 45.3585 57.6417 46.0075C56.9927 46.6565 56.2125 46.981 55.301 46.981H31.1152ZM33.8652 44.231H52.5514C52.5514 43.3168 52.8759 42.5358 53.5249 41.888C54.1739 41.2406 54.954 40.9168 55.8652 40.9168V32.5257C54.951 32.5257 54.1701 32.2012 53.5226 31.5522C52.8752 30.9032 52.5514 30.1231 52.5514 29.2119H33.8652C33.8652 30.1261 33.5407 30.907 32.8917 31.5545C32.2427 32.2019 31.4626 32.5257 30.5514 32.5257V40.9168C31.4657 40.9168 32.2465 41.2413 32.894 41.8903C33.5414 42.5393 33.8652 43.3196 33.8652 44.231ZM53.1505 53.3977H24.699C23.7875 53.3977 23.0073 53.0732 22.3583 52.4242C21.7093 51.7752 21.3848 50.995 21.3848 50.0835V31.9266H24.1348V50.0835C24.1348 50.2244 24.1934 50.3536 24.3108 50.4713C24.4284 50.5889 24.5578 50.6477 24.699 50.6477H53.1505V53.3977ZM31.1152 44.231H30.5514V29.2119H31.1152C30.9624 29.2119 30.8303 29.2677 30.7187 29.3792C30.6072 29.4907 30.5514 29.6229 30.5514 29.7757V43.6668C30.5514 43.8196 30.6072 43.9518 30.7187 44.0633C30.8303 44.1751 30.9624 44.231 31.1152 44.231Z" fill="#BF1E2E"/>
</g>
</svg>
