<svg width="129" height="114" viewBox="0 0 129 114" fill="none" xmlns="http://www.w3.org/2000/svg">
<path d="M59.7905 84.0648C59.7905 93.0863 57.1968 100.331 52.0095 105.799C46.8222 111.266 39.5873 114 30.3048 114C19.1111 114 11.1936 110.446 6.55238 103.338C2.18413 95.9568 0 87.2086 0 77.0935C0 69.1655 1.6381 60.2806 4.91429 50.4388C8.46349 40.5971 12.8317 31.1655 18.019 22.1439C23.2063 12.8489 28.5302 5.46762 33.9905 0L43.4095 2.87049C38.4952 10.7985 34.127 20.5036 30.3048 31.9856C26.7556 43.1942 24.8444 53.446 24.5714 62.741C26.2095 61.3741 27.9841 60.4173 29.8952 59.8705C32.0794 59.3237 34.127 59.0504 36.0381 59.0504C42.3175 59.0504 47.7778 61.6475 52.419 66.8417C57.3333 72.036 59.7905 77.777 59.7905 84.0648ZM129 84.0648C129 93.0863 126.406 100.331 121.219 105.799C116.032 111.266 108.797 114 99.5143 114C88.3206 114 80.4032 110.446 75.7619 103.338C71.3936 95.9568 69.2095 87.2086 69.2095 77.0935C69.2095 69.1655 70.8476 60.2806 74.1238 50.4388C77.673 40.5971 82.0413 31.1655 87.2286 22.1439C92.4159 12.8489 97.7397 5.46762 103.2 0L112.619 2.87049C107.705 10.7985 103.337 20.5036 99.5143 31.9856C95.9651 43.1942 94.054 53.446 93.781 62.741C95.419 61.3741 97.1936 60.4173 99.1048 59.8705C101.289 59.3237 103.337 59.0504 105.248 59.0504C111.527 59.0504 116.987 61.6475 121.629 66.8417C126.543 72.036 129 77.777 129 84.0648Z" fill="#F4F4F4"/>
</svg>
