<svg width="60" height="60" viewBox="0 0 60 60" fill="none" xmlns="http://www.w3.org/2000/svg">
<mask id="mask0_428_1527" style="mask-type:alpha" maskUnits="userSpaceOnUse" x="0" y="0" width="60" height="60">
<rect width="60" height="60" fill="#D9D9D9"/>
</mask>
<g mask="url(#mask0_428_1527)">
<path d="M40.6394 51.25L38.0288 48.6394L41.9663 44.6394L38.0288 40.7019L40.6394 38.0288L44.6394 42.0287L48.5769 38.0288L51.25 40.7019L47.25 44.6394L51.25 48.6394L48.5769 51.25L44.6394 47.3125L40.6394 51.25ZM15.625 47.5C16.4938 47.5 17.2317 47.1963 17.8388 46.5887C18.4463 45.9817 18.75 45.2438 18.75 44.375C18.75 43.5062 18.4463 42.7683 17.8388 42.1612C17.2317 41.5537 16.4938 41.25 15.625 41.25C14.7562 41.25 14.0183 41.5537 13.4113 42.1612C12.8038 42.7683 12.5 43.5062 12.5 44.375C12.5 45.2438 12.8038 45.9817 13.4113 46.5887C14.0183 47.1963 14.7562 47.5 15.625 47.5ZM15.625 51.25C13.7179 51.25 12.0954 50.5808 10.7575 49.2425C9.41917 47.9046 8.75 46.2821 8.75 44.375C8.75 42.4679 9.41917 40.8454 10.7575 39.5075C12.0954 38.1692 13.7179 37.5 15.625 37.5C17.1346 37.5 18.4927 37.9431 19.6994 38.8294C20.906 39.7156 21.729 40.8879 22.1681 42.3463C23.9535 42.0321 25.4327 41.1844 26.6056 39.8031C27.779 38.4215 28.3656 36.8204 28.3656 35V25.3606C28.3656 22.0785 29.5242 19.279 31.8412 16.9619C34.1587 14.6444 36.9585 13.4856 40.2406 13.4856H44.0288L39.4663 8.92313L42.1394 6.25L51.25 15.3606L42.1394 24.4712L39.4663 21.8606L44.005 17.2356H40.2406C37.981 17.2356 36.0619 18.0248 34.4831 19.6031C32.9048 21.1819 32.1156 23.101 32.1156 25.3606V35C32.1156 37.8333 31.1725 40.3021 29.2862 42.4062C27.4 44.5104 25.0529 45.7531 22.245 46.1344C21.8575 47.644 21.0475 48.874 19.815 49.8244C18.5825 50.7748 17.1858 51.25 15.625 51.25ZM11.3606 21.9712L8.75 19.3606L12.6875 15.3606L8.75 11.4231L11.3606 8.75L15.3606 12.75L19.2981 8.75L21.9713 11.4231L17.9713 15.3606L21.9713 19.3606L19.2981 21.9712L15.3606 18.0337L11.3606 21.9712Z" fill="white"/>
</g>
</svg>
