<svg width="1440" height="1243" viewBox="0 0 1440 1243" fill="none" xmlns="http://www.w3.org/2000/svg">
<g opacity="0.03">
<path d="M-190 776.78C-184.811 704.717 -168.194 633.966 -140.786 567.24C-52.7737 352.142 106.107 204.071 303.375 92.7473C430.558 21.9364 567.787 -28.5964 710.214 -57.0663C921.709 -101.459 1139.75 -103.6 1352.05 -63.3708C1487.51 -38.0745 1618.97 5.5644 1742.9 66.3682C1744.13 66.9489 1744.95 68.525 1748.48 72.5067C1736.75 72.5067 1727.4 72.5067 1718.04 72.5067C1480.35 73.2051 1243.38 99.0333 1011 149.57C763.858 203.656 527.055 285.614 303.211 405.149C177.878 472.01 59.0252 549.488 -47.5241 644.636C-95.0981 687.108 -140.786 731.322 -190 776.78Z" fill="#1B3664"/>
<path d="M757.343 384.606C838.465 360.301 915.076 337.24 991.85 314.427C1048.45 297.837 1104.72 279.753 1161.89 265.402C1185.92 258.791 1211.01 257.043 1235.71 260.259C1371.28 281.632 1499.49 336.66 1608.88 420.421C1718.27 504.181 1805.42 614.06 1862.54 740.227C1864.83 745.37 1866.56 750.679 1870 759.555C1536.08 521.313 1159.02 422.847 757.343 384.606Z" fill="#1B3664"/>
<path d="M1603.38 1242.15C1498.63 999.676 1356.73 787.398 1163.97 609.629C1227.79 632.193 1329.09 667.697 1376.17 683.458C1449.5 712.657 1498.71 748.41 1536.69 808.966C1617.9 938.124 1637.91 1078.9 1608.54 1227.8C1607.13 1232.69 1605.4 1237.48 1603.38 1242.15Z" fill="#1B3664"/>
</g>
</svg>
