<svg width="120" height="120" viewBox="0 0 120 120" fill="none" xmlns="http://www.w3.org/2000/svg">
<mask id="mask0_157_888" style="mask-type:alpha" maskUnits="userSpaceOnUse" x="0" y="0" width="120" height="120">
<rect width="120" height="120" fill="#D9D9D9"/>
</mask>
<g mask="url(#mask0_157_888)">
<path d="M37 76.4424L52.25 61.2885L62.25 71.2885L82.5 51.0674V62.5H87.5V42.5H67.5V47.5H78.9326L62.25 64.1826L52.25 54.1826L33.5576 73L37 76.4424ZM28.0769 100C25.7756 100 23.8542 99.2292 22.3125 97.6875C20.7708 96.1458 20 94.2244 20 91.9231V28.0769C20 25.7756 20.7708 23.8542 22.3125 22.3125C23.8542 20.7708 25.7756 20 28.0769 20H91.9231C94.2244 20 96.1458 20.7708 97.6875 22.3125C99.2292 23.8542 100 25.7756 100 28.0769V91.9231C100 94.2244 99.2292 96.1458 97.6875 97.6875C96.1458 99.2292 94.2244 100 91.9231 100H28.0769Z" fill="#BF1E2E"/>
</g>
</svg>
