<svg width="40" height="40" viewBox="0 0 40 40" fill="none" xmlns="http://www.w3.org/2000/svg">
<circle cx="20" cy="20" r="20" fill="#F4F4F4"/>
<mask id="mask0_275_1449" style="mask-type:alpha" maskUnits="userSpaceOnUse" x="8" y="8" width="24" height="24">
<rect x="8" y="8" width="24" height="24" fill="#D9D9D9"/>
</mask>
<g mask="url(#mask0_275_1449)">
<path d="M20.0009 19.8654C20.4985 19.8654 20.9239 19.6882 21.2771 19.3339C21.6303 18.9795 21.8069 18.5536 21.8069 18.056C21.8069 17.5584 21.6297 17.133 21.2754 16.7798C20.9211 16.4266 20.4951 16.25 19.9975 16.25C19.4999 16.25 19.0745 16.4272 18.7213 16.7815C18.3681 17.1358 18.1915 17.5618 18.1915 18.0594C18.1915 18.557 18.3687 18.9824 18.723 19.3356C19.0774 19.6888 19.5033 19.8654 20.0009 19.8654ZM19.9992 29.5096C17.4826 27.3288 15.5954 25.2993 14.3377 23.4211C13.08 21.5429 12.4512 19.8186 12.4512 18.2481C12.4512 15.9404 13.1976 14.0721 14.6906 12.6433C16.1835 11.2144 17.9531 10.5 19.9992 10.5C22.0454 10.5 23.8149 11.2144 25.3078 12.6433C26.8008 14.0721 27.5473 15.9404 27.5473 18.2481C27.5473 19.8186 26.9184 21.5429 25.6607 23.4211C24.403 25.2993 22.5159 27.3288 19.9992 29.5096Z" fill="#061021"/>
</g>
</svg>
