<svg width="28" height="29" viewBox="0 0 28 29" fill="none" xmlns="http://www.w3.org/2000/svg">
<path d="M14.0004 28.4998C6.26783 28.4998 0 22.232 0 14.5002C0 6.76766 6.26783 0.499825 14.0004 0.499825C21.7322 0.499825 28 6.76766 28 14.5002C28 22.232 21.7322 28.4998 14.0004 28.4998Z" fill="#171717"/>
<mask id="mask0_228_1085" style="mask-type:alpha" maskUnits="userSpaceOnUse" x="0" y="0" width="28" height="29">
<rect y="0.499939" width="28" height="28" fill="#D9D9D9"/>
</mask>
<g mask="url(#mask0_228_1085)">
<path d="M16.1184 18.5384L13.874 20.7828C13.1263 21.5304 12.2132 21.892 11.1348 21.8675C10.0563 21.843 9.12586 21.4396 8.34342 20.6571C7.56098 19.8747 7.1574 18.9441 7.13268 17.8655C7.10796 16.7868 7.46943 15.8736 8.21711 15.1259L10.4615 12.8815L11.3963 13.8163L9.15191 16.0607C8.65187 16.5607 8.41008 17.1721 8.42654 17.8947C8.443 18.6173 8.7129 19.2403 9.23625 19.7636C9.7596 20.287 10.3826 20.5569 11.1052 20.5733C11.8278 20.5898 12.4391 20.348 12.9392 19.848L15.1836 17.6036L16.1184 18.5384ZM12.2344 17.7003L11.2996 16.7655L15.7655 12.2996L16.7003 13.2344L12.2344 17.7003ZM17.5383 17.1184L16.6035 16.1836L18.848 13.9392C19.348 13.4391 19.5898 12.8278 19.5733 12.1052C19.5569 11.3826 19.287 10.7596 18.7636 10.2363C18.2403 9.71292 17.6173 9.44301 16.8947 9.42655C16.1721 9.41009 15.5607 9.65188 15.0607 10.1519L12.8163 12.3963L11.8815 11.4615L14.1259 9.21713C14.8736 8.46945 15.7866 8.10785 16.8651 8.13235C17.9436 8.15684 18.874 8.56031 19.6564 9.34275C20.4389 10.1252 20.8425 11.0557 20.8672 12.1344C20.8919 13.2131 20.5304 14.1263 19.7827 14.874L17.5383 17.1184Z" fill="white"/>
</g>
</svg>
