<svg width="28" height="29" viewBox="0 0 28 29" fill="none" xmlns="http://www.w3.org/2000/svg">
<path d="M14.0003 28.4999C6.26806 28.4999 0 22.2321 0 14.5003C0 6.76848 6.26806 0.499908 14.0003 0.499908C21.7321 0.499908 27.9999 6.76848 27.9999 14.5003C27.9999 22.2321 21.7321 28.4999 14.0003 28.4999Z" fill="#171717"/>
<path d="M7.65137 20.7393H10.5491V11.3795H7.65137V20.7393Z" fill="white"/>
<path d="M9.08738 10.154C10.0334 10.154 10.8007 9.37931 10.8007 8.42589C10.8007 7.47248 10.0334 6.6993 9.08738 6.6993C8.14059 6.6993 7.37402 7.47248 7.37402 8.42589C7.37402 9.37931 8.14059 10.154 9.08738 10.154Z" fill="white"/>
<path d="M15.1817 15.8259C15.1817 14.5105 15.7871 13.7263 16.9473 13.7263C18.0125 13.7263 18.5245 14.4789 18.5245 15.8259C18.5245 17.1743 18.5245 20.7393 18.5245 20.7393H21.4083C21.4083 20.7393 21.4083 17.32 21.4083 14.8129C21.4083 12.3057 19.987 11.0934 18.0022 11.0934C16.0166 11.0934 15.1817 12.6397 15.1817 12.6397V11.3795H12.4023V20.7393H15.1817C15.1817 20.7393 15.1817 17.2678 15.1817 15.8259Z" fill="white"/>
</svg>
