<svg width="22" height="21" viewBox="0 0 22 21" fill="none" xmlns="http://www.w3.org/2000/svg">
<path d="M2.07588 20.3387C1.55727 20.3387 1.1183 20.159 0.758971 19.7997C0.399637 19.4403 0.219971 19.0014 0.219971 18.4827V8.13718H1.75995V18.4827C1.75995 18.5617 1.79285 18.6341 1.85866 18.7C1.92449 18.7658 1.99689 18.7987 2.07588 18.7987H18.4432V20.3387H2.07588ZM5.66916 16.7453C5.15057 16.7453 4.71161 16.5657 4.35228 16.2063C3.99295 15.847 3.81328 15.4081 3.81328 14.8895V4.42542H9.10456V2.58928C9.10456 2.07069 9.28423 1.63173 9.64356 1.2724C10.0029 0.913065 10.4419 0.733398 10.9604 0.733398H14.6327C15.1513 0.733398 15.5903 0.913065 15.9496 1.2724C16.3089 1.63173 16.4886 2.07069 16.4886 2.58928V4.42542H21.7799V14.8895C21.7799 15.4081 21.6003 15.847 21.2409 16.2063C20.8816 16.5657 20.4426 16.7453 19.924 16.7453H5.66916ZM5.66916 15.2054H19.924C20.003 15.2054 20.0754 15.1725 20.1412 15.1067C20.207 15.0408 20.2399 14.9684 20.2399 14.8895V5.96537H5.35325V14.8895C5.35325 14.9684 5.38616 15.0408 5.45197 15.1067C5.51778 15.1725 5.59017 15.2054 5.66916 15.2054ZM10.6445 4.42542H14.9487V2.58928C14.9487 2.51029 14.9157 2.4379 14.8499 2.37209C14.7841 2.30626 14.7117 2.27335 14.6327 2.27335H10.9604C10.8815 2.27335 10.8091 2.30626 10.7433 2.37209C10.6774 2.4379 10.6445 2.51029 10.6445 2.58928V4.42542Z" fill="#BF1E2E"/>
</svg>
