<svg width="24" height="12" viewBox="0 0 24 12" fill="none" xmlns="http://www.w3.org/2000/svg">
<path d="M2.76005 11.9033C2.26119 11.9033 1.83704 11.7286 1.48759 11.3791C1.13812 11.0297 0.963379 10.6055 0.963379 10.1067C0.963379 9.6078 1.13811 9.18365 1.48757 8.8342C1.83703 8.48474 2.26119 8.31001 2.76005 8.31001C2.87587 8.31001 2.98051 8.31495 3.07397 8.32482C3.16744 8.3347 3.26023 8.36662 3.35236 8.42059L8.26064 3.5123C8.20667 3.42017 8.17475 3.32738 8.16488 3.23392C8.15501 3.14046 8.15007 3.03581 8.15007 2.91999C8.15007 2.42113 8.3248 1.99698 8.67426 1.64754C9.02371 1.29808 9.44785 1.12335 9.94671 1.12335C10.4456 1.12335 10.8697 1.29808 11.2192 1.64754C11.5686 1.99698 11.7434 2.42113 11.7434 2.91999C11.7434 2.98054 11.7131 3.1714 11.6525 3.49256L14.5075 6.34749C14.5996 6.3067 14.6891 6.28136 14.776 6.27149C14.8629 6.26162 14.9642 6.25668 15.08 6.25668C15.1959 6.25668 15.2989 6.26162 15.389 6.27149C15.4792 6.28136 15.5671 6.31328 15.6526 6.36725L19.554 2.46589C19.5 2.38034 19.4681 2.29248 19.4582 2.20232C19.4483 2.11215 19.4434 2.00915 19.4434 1.89332C19.4434 1.39446 19.6181 0.970314 19.9676 0.620871C20.317 0.271411 20.7412 0.0966797 21.24 0.0966797C21.7389 0.0966797 22.1631 0.271411 22.5125 0.620871C22.862 0.970314 23.0367 1.39446 23.0367 1.89332C23.0367 2.39218 22.862 2.81633 22.5125 3.16577C22.1631 3.51523 21.7389 3.68996 21.24 3.68996C21.1242 3.68996 21.0212 3.68503 20.931 3.67515C20.8409 3.66528 20.753 3.63336 20.6675 3.57939L16.7661 7.48075C16.8201 7.5663 16.852 7.65416 16.8619 7.74432C16.8717 7.8345 16.8767 7.9375 16.8767 8.05332C16.8767 8.55218 16.702 8.97633 16.3525 9.32577C16.0031 9.67523 15.5789 9.84996 15.08 9.84996C14.5812 9.84996 14.157 9.67523 13.8076 9.32577C13.4581 8.97633 13.2834 8.55218 13.2834 8.05332C13.2834 7.9375 13.2883 7.83285 13.2982 7.73939C13.3081 7.64593 13.34 7.55314 13.394 7.46101L10.539 4.60606C10.4469 4.66002 10.3541 4.69195 10.2606 4.70182C10.1672 4.71169 10.0625 4.71663 9.94671 4.71663C9.88616 4.71663 9.6953 4.68636 9.37414 4.62582L4.46588 9.53408C4.50667 9.62623 4.532 9.71573 4.54188 9.80261C4.55175 9.88948 4.55669 9.99083 4.55669 10.1067C4.55669 10.6055 4.38196 11.0297 4.0325 11.3791C3.68305 11.7286 3.2589 11.9033 2.76005 11.9033Z" fill="#BF1E2E"/>
</svg>
