<svg width="32" height="32" viewBox="0 0 32 32" fill="none" xmlns="http://www.w3.org/2000/svg">
<mask id="mask0_172_760" style="mask-type:alpha" maskUnits="userSpaceOnUse" x="0" y="0" width="32" height="32">
<rect width="32" height="32" fill="#D9D9D9"/>
</mask>
<g mask="url(#mask0_172_760)">
<path d="M16.0045 28C14.3451 28 12.785 27.6851 11.3241 27.0554C9.86331 26.4256 8.59259 25.5709 7.51197 24.4913C6.43137 23.4117 5.57589 22.1422 4.94553 20.6827C4.31518 19.2233 4 17.6638 4 16.0045C4 14.3451 4.315 12.785 4.945 11.3241C5.575 9.86331 6.43 8.59259 7.51 7.51197C8.59 6.43137 9.86 5.57589 11.32 4.94553C12.78 4.31518 14.34 4 16 4C17.3646 4 18.6558 4.21111 19.8735 4.63333C21.0912 5.05556 22.2017 5.64444 23.2051 6.4L22.2462 7.3923C21.3675 6.73932 20.4011 6.23291 19.3468 5.87307C18.2925 5.51324 17.1769 5.33333 16 5.33333C13.0444 5.33333 10.5278 6.37222 8.45 8.45C6.37222 10.5278 5.33333 13.0444 5.33333 16C5.33333 18.9556 6.37222 21.4722 8.45 23.55C10.5278 25.6278 13.0444 26.6667 16 26.6667C18.9556 26.6667 21.4722 25.6278 23.55 23.55C25.6278 21.4722 26.6667 18.9556 26.6667 16C26.6667 15.4632 26.6274 14.9368 26.5487 14.4207C26.4701 13.9046 26.3521 13.4028 26.1949 12.9154L27.259 11.8256C27.5034 12.4855 27.688 13.1624 27.8128 13.8565C27.9376 14.5506 28 15.2651 28 16C28 17.66 27.6851 19.22 27.0554 20.68C26.4256 22.14 25.5709 23.41 24.4913 24.49C23.4117 25.57 22.1422 26.425 20.6827 27.055C19.2233 27.685 17.6638 28 16.0045 28ZM14.0821 21.2103L9.33847 16.4667L10.2821 15.5231L14.0821 19.3231L27.0564 6.34103L28 7.2846L14.0821 21.2103Z" fill="#484C52"/>
</g>
</svg>
