<svg width="18" height="17" viewBox="0 0 18 17" fill="none" xmlns="http://www.w3.org/2000/svg">
<path d="M16.4403 17C14.5557 17 12.6625 16.5618 10.7606 15.6855C8.85863 14.8092 7.1096 13.573 5.51345 11.9769C3.92372 10.3807 2.69071 8.6333 1.81442 6.7346C0.938142 4.83588 0.5 2.94423 0.5 1.05963C0.5 0.759625 0.6 0.508025 0.8 0.304825C1 0.101608 1.25 0 1.55 0H4.8115C5.06407 0 5.28683 0.0823752 5.47977 0.247125C5.67272 0.411875 5.79548 0.615401 5.84803 0.857701L6.4211 3.79998C6.46085 4.07306 6.45252 4.30768 6.3961 4.50383C6.3397 4.69998 6.23842 4.86472 6.09225 4.99805L3.78265 7.24613C4.15445 7.92689 4.57913 8.5708 5.0567 9.17785C5.53427 9.78492 6.05125 10.3647 6.60765 10.9173C7.15638 11.466 7.73973 11.9756 8.35768 12.4462C8.97563 12.9167 9.64293 13.3545 10.3596 13.7596L12.6038 11.4962C12.7602 11.3333 12.9497 11.2192 13.1721 11.1539C13.3945 11.0885 13.6256 11.0724 13.8654 11.1058L16.6423 11.6712C16.8948 11.7378 17.1009 11.8667 17.2605 12.0577C17.4201 12.2487 17.5 12.4654 17.5 12.7077V15.95C17.5 16.25 17.3983 16.5 17.1951 16.7C16.9919 16.9 16.7403 17 16.4403 17Z" fill="#061021"/>
</svg>
