<svg width="30" height="30" viewBox="0 0 30 30" fill="none" xmlns="http://www.w3.org/2000/svg">
<circle cx="15" cy="15" r="15" fill="#061021"/>
<path d="M8.46692 12.7067H11.2573V21.6792H8.46692V12.7067ZM9.86703 8.25C10.7643 8.25 11.4841 8.96977 11.4841 9.86703C11.4841 10.7643 10.7643 11.4841 9.86703 11.4841C8.96977 11.4841 8.25 10.7544 8.25 9.86703C8.25 8.97963 8.96977 8.25 9.86703 8.25Z" fill="white"/>
<path d="M13.0123 12.7068H15.6843V13.9294H15.7238C16.0985 13.2195 17.0056 12.48 18.3662 12.48C21.1862 12.48 21.7087 14.3336 21.7087 16.7493V21.6694H18.9184V17.3113C18.9184 16.2662 18.8987 14.9351 17.469 14.9351C16.0393 14.9351 15.7928 16.069 15.7928 17.2423V21.6793H13.0024V12.7068H13.0123Z" fill="white"/>
</svg>
