<svg width="30" height="30" viewBox="0 0 30 30" fill="none" xmlns="http://www.w3.org/2000/svg">
<circle cx="15" cy="15" r="15" fill="#061021"/>
<path d="M21.2915 20.411L16.5836 13.5716L16.0512 12.798L12.6834 7.90532L12.4044 7.5H8.26611L9.27548 8.9668L13.7531 15.4729L14.2856 16.2457L17.8836 21.4733L18.1625 21.8782H22.3009L21.2915 20.4114V20.411ZM18.6545 20.9416L14.9166 15.5108L14.3842 14.7377L10.0468 8.43588H11.9125L15.4202 13.5322L15.9526 14.3053L20.5202 20.9416H18.6545Z" fill="white"/>
<path d="M14.3842 14.7378L14.9166 15.5109L14.2856 16.2455L9.44384 21.878H8.25L13.7531 15.4727L14.3842 14.7378Z" fill="white"/>
<path d="M21.8026 7.5L16.5836 13.5716L15.9526 14.3057L15.4202 13.5326L16.0512 12.798L19.5866 8.68334L20.6087 7.5H21.8026Z" fill="white"/>
</svg>
